<svg viewBox="0 0 16 16" fill="#000000" xmlns="http://www.w3.org/2000/svg" id="Nodejs-Line--Streamline-Remix" height="16" width="16">
  <desc>
    Nodejs Line Streamline Icon: https://streamlinehq.com
  </desc>
  <path d="M8.591533333333333 0.9078200000000001c-0.3651333333333333 -0.21476666666666666 -0.8179333333333334 -0.21476666666666666 -1.1830666666666665 0L2.2418066666666663 3.94704C1.8854666666666664 4.156653333333333 1.6666666666666665 4.539199999999999 1.6666666666666665 4.952626666666666V11.047333333333334c0 0.41346666666666665 0.2188 0.7959999999999999 0.5751466666666667 1.0055999999999998l1.7488266666666665 1.0287333333333333C4.879486666666667 13.604533333333332 6 12.9636 6 11.932399999999998V5.164366666666666H4.666666666666666V11.932399999999998L3 10.952V5.047953333333333L8 2.106773333333333l5 2.9411799999999997V10.952L8 13.8932l-1.1789333333333332 -0.6934666666666667 -0.67602 1.1492 1.26342 0.7432c0.3651333333333333 0.2148 0.8179333333333334 0.2148 1.1830666666666665 0l5.166666666666666 -3.0391999999999997c0.3563333333333333 -0.2096 0.5751333333333333 -0.5921333333333333 0.5751333333333333 -1.0055999999999998V4.952626666666666c0 -0.41342666666666666 -0.2188 -0.7959733333333332 -0.5751333333333333 -1.0055866666666666l-5.166666666666666 -3.0392200000000003Zm0.7417333333333334 4.0921666666666665c-0.9084666666666666 0 -1.5524666666666667 0.23410666666666669 -1.9663333333333333 0.6466333333333333 -0.4112 0.40993999999999997 -0.49126666666666663 0.8926133333333334 -0.49126666666666663 1.1742466666666667 0 0.3699333333333333 0.10466666666666666 0.7051333333333334 0.3210666666666666 0.9823333333333333 0.20833333333333331 0.267 0.48319999999999996 0.4326 0.7463333333333333 0.5407333333333333 0.4796666666666667 0.19713333333333333 1.0808 0.2618 1.5627333333333333 0.3136l0.0582 0.006266666666666667c0.5542666666666667 0.059933333333333325 0.9692 0.11133333333333334 1.2535333333333334 0.23026666666666665 0.1284 0.053733333333333334 0.18133333333333335 0.10286666666666666 0.20313333333333333 0.13119999999999998 0.014266666666666665 0.0186 0.0416 0.059933333333333325 0.0416 0.17319999999999997 0 0.17606666666666665 -0.06046666666666667 0.28946666666666665 -0.24866666666666665 0.39659999999999995 -0.23159999999999997 0.13186666666666666 -0.6405333333333333 0.2313333333333333 -1.2557333333333331 0.2313333333333333 -0.61 0 -1.0353333333333332 -0.11273333333333332 -1.2784 -0.28099999999999997 -0.18899999999999997 -0.13086666666666666 -0.3279333333333333 -0.3314 -0.29133333333333333 -0.7665333333333333l-1.3286466666666665 -0.11173333333333332c-0.07232 0.8595333333333333 0.23911333333333332 1.5439999999999998 0.8610466666666667 1.9745333333333335 0.5678 0.3930666666666667 1.314 0.5180666666666667 2.037333333333333 0.5180666666666667 0.7181333333333333 0 1.3947333333333332 -0.10953333333333333 1.9153333333333333 -0.4059333333333333 0.564 -0.3210666666666666 0.9223999999999999 -0.855 0.9223999999999999 -1.5553333333333335 0 -0.3708666666666667 -0.10353333333333332 -0.7071999999999999 -0.3181333333333333 -0.9862 -0.2072 -0.2693333333333333 -0.4813333333333333 -0.43779999999999997 -0.7454000000000001 -0.5482666666666667 -0.4853333333333333 -0.20299999999999999 -1.0936666666666666 -0.2685333333333333 -1.579 -0.32086666666666663l-0.045799999999999993 -0.004933333333333333c-0.5556666666666666 -0.060066666666666664 -0.9715333333333334 -0.11 -1.2574 -0.2275333333333333 -0.12933333333333333 -0.053133333333333324 -0.18153333333333332 -0.10153333333333332 -0.20213333333333333 -0.12786666666666666 -0.012533333333333334 -0.016066666666666667 -0.03873333333333333 -0.05346666666666666 -0.03873333333333333 -0.16193333333333332 0 -0.051666666666666666 0.0152 -0.14613333333333334 0.09926666666666667 -0.22995333333333334 0.08153333333333333 -0.08125333333333333 0.3329333333333333 -0.25759333333333334 1.025 -0.25759333333333334 0.6603333333333333 0 1.045 0.07011333333333333 1.2647333333333333 0.20043999999999998 0.14353333333333332 0.08515999999999999 0.2987333333333333 0.2417733333333333 0.3194 0.75484l1.3322666666666665 -0.05366666666666667c-0.033466666666666665 -0.8304333333333332 -0.33673333333333333 -1.4714199999999997 -0.9714666666666667 -1.8479266666666665 -0.5585333333333333 -0.3313466666666667 -1.2719333333333331 -0.38702 -1.9449333333333334 -0.38702Z" stroke-width="0.6667"></path>
</svg>